HIERARCHY
ROOT Hips
{
	OFFSET 22.929825 -13.753626 -17.627447
	CHANNELS 6 Xposition Yposition Zposition Zrotation Yrotation Xrotation
	JOINT LHipJoint
	{
		OFFSET -15.521521 -19.041800 -45.777077
		CHANNELS 3 Zrotation Yrotation Xrotation
		JOINT LeftUpLeg
		{
			OFFSET -50.303589 -76.870850 -96.588348
			CHANNELS 3 Zrotation Yrotation Xrotation
			JOINT LeftLeg
			{
				OFFSET -90.425255 -94.760208 -96.079262
				CHANNELS 3 Zrotation Yrotation Xrotation
				JOINT LeftFoot
				{
					OFFSET -86.060707 -88.440613 -86.400139
					CHANNELS 3 Zrotation Yrotation Xrotation
					JOINT LeftToeBase
					{
						OFFSET -96.292870 -92.646103 -92.027901
						CHANNELS 3 Zrotation Yrotation Xrotation
						End Site
						{
							OFFSET 0.000000 0.000000 0.000000
						}
					}
				}
			}
		}
	}
	JOINT RHipJoint
	{
		OFFSET -92.077965 -83.991844 -73.925835
		CHANNELS 3 Zrotation Yrotation Xrotation
		JOINT RightUpLeg
		{
			OFFSET -98.971153 -99.659882 -120.625603
			CHANNELS 3 Zrotation Yrotation Xrotation
			JOINT RightLeg
			{
				OFFSET -125.948418 -144.038300 -142.567673
				CHANNELS 3 Zrotation Yrotation Xrotation
				JOINT RightFoot
				{
					OFFSET -174.489777 -187.923767 -216.238800
					CHANNELS 3 Zrotation Yrotation Xrotation
					JOINT RightToeBase
					{
						OFFSET -223.775986 -234.887817 -238.068878
						CHANNELS 3 Zrotation Yrotation Xrotation
						End Site
						{
							OFFSET 0.000000 0.000000 0.000000
						}
					}
				}
			}
		}
	}
	JOINT LowerBack
	{
		OFFSET -238.482010 -231.329056 -223.512527
		CHANNELS 3 Zrotation Yrotation Xrotation
		JOINT Spine
		{
			OFFSET -227.045593 -226.537125 -223.293655
			CHANNELS 3 Zrotation Yrotation Xrotation
			JOINT Spine1
			{
				OFFSET -222.624847 -223.601654 -226.775482
				CHANNELS 3 Zrotation Yrotation Xrotation
				JOINT Neck
				{
					OFFSET -229.783524 -219.817871 -237.602341
					CHANNELS 3 Zrotation Yrotation Xrotation
					JOINT Neck1
					{
						OFFSET -186.905334 -191.955765 -189.871170
						CHANNELS 3 Zrotation Yrotation Xrotation
						JOINT Head
						{
							OFFSET -199.748734 -174.509857 -173.784668
							CHANNELS 3 Zrotation Yrotation Xrotation
							End Site
							{
								OFFSET 0.000000 0.000000 0.000000
							}
						}
					}
				}
				JOINT LeftShoulder
				{
					OFFSET -136.853607 -150.097672 -155.035461
					CHANNELS 3 Zrotation Yrotation Xrotation
					JOINT LeftArm
					{
						OFFSET -138.660461 -147.260406 -135.910217
						CHANNELS 3 Zrotation Yrotation Xrotation
						JOINT LeftForeArm
						{
							OFFSET -139.627380 -138.719467 -134.510117
							CHANNELS 3 Zrotation Yrotation Xrotation
							JOINT LeftHand
							{
								OFFSET -126.607513 -114.752815 -115.260490
								CHANNELS 3 Zrotation Yrotation Xrotation
								JOINT LeftFingerBase
								{
									OFFSET -119.838516 -126.424797 -96.095062
									CHANNELS 3 Zrotation Yrotation Xrotation
									JOINT LeftHandIndex1
									{
										OFFSET -98.972633 -77.702721 -69.564873
										CHANNELS 3 Zrotation Yrotation Xrotation
										End Site
										{
											OFFSET 0.000000 0.000000 0.000000
										}
									}
								}
								JOINT LThumb
								{
									OFFSET -41.542225 -38.460045 -31.169638
									CHANNELS 3 Zrotation Yrotation Xrotation
									End Site
									{
										OFFSET 0.000000 0.000000 0.000000
									}
								}
							}
						}
					}
				}
				JOINT RightShoulder
				{
					OFFSET -31.942116 -31.335890 -27.500639
					CHANNELS 3 Zrotation Yrotation Xrotation
					JOINT RightArm
					{
						OFFSET -29.808094 -6.489004 -22.046558
						CHANNELS 3 Zrotation Yrotation Xrotation
						JOINT RightForeArm
						{
							OFFSET -26.020481 -21.512068 -21.144793
							CHANNELS 3 Zrotation Yrotation Xrotation
							JOINT RightHand
							{
								OFFSET -16.826923 -11.504135 -26.395952
								CHANNELS 3 Zrotation Yrotation Xrotation
								JOINT RightFingerBase
								{
									OFFSET -14.825884 -0.533951 -2.042345
									CHANNELS 3 Zrotation Yrotation Xrotation
									JOINT RightHandIndex1
									{
										OFFSET 3.181267 -1.596131 -5.737914
										CHANNELS 3 Zrotation Yrotation Xrotation
										End Site
										{
											OFFSET 0.000000 0.000000 0.000000
										}
									}
								}
								JOINT RThumb
								{
									OFFSET -5.885931 -20.136942 -6.231253
									CHANNELS 3 Zrotation Yrotation Xrotation
									End Site
									{
										OFFSET -5.930230 -13.406678 23.037994
									}
								}
							}
						}
					}
				}
			}
		}
	}
}
MOTION
Frames: 4
Frame Time: 0.008333
10.608906 5.499413 -462.524200 -78.778923 -61.420563 -46.214943 -37.627930 -37.096352 -96.731216 -223.419647 -219.196320 -322.017090 -50.817711 -41.853821 -146.623032 -52.811176 -193.622284 -179.233521 -14.319575 -5.025195 58.221165 -78.464020 -16.449558 -21.147955 -64.740753 -84.341049 55.972935 3.873716 -15.635532 -146.192871 -23.925856 -17.276793 -95.977562 -13.747893 -14.920820 -54.362442 -22.545773 -13.928663 -38.841568 -24.911926 -34.897701 -16.159832 -43.974022 -46.433605 -169.710464 -40.489960 -72.645325 -134.719299 -60.833595 -118.066460 -173.319275 -68.132248 -74.875427 -163.426743 -119.592476 -162.093582 -42.752907 -351.169067 -475.356537 -663.831116 -386.711090 -186.877884 -147.101059 -6.111213 -31.634699 -130.045883 -156.174240 -246.161316 -203.892090 -7.125000 0.000000 0.000000 -232.555389 -247.819626 -248.038879 -36.079681 37.802834 8.361042 94.804794 83.295502 239.121353 91.593262 92.872307 -64.838158 -1.024016 5.893348 34.088825 130.791519 14.685721 -167.028244 7.125000 0.000000 0.000000 -478.709106 -803.972290 -1228.892700
61.065052 21.434551 162.813843 49.461395 168.060760 193.174057 192.422440 86.104858 68.892555 155.208862 143.310272 157.831100 64.052803 77.778893 237.979660 19.264791 84.300980 13.646538 0.028527 16.898523 121.767967 -81.963463 -12.706705 -2.087680 7.762021 -20.227398 165.733643 43.688503 53.245216 151.129791 52.301647 253.160675 279.550476 32.351299 156.484497 515.734070 109.666061 106.843910 141.812927 37.919456 85.917755 112.239395 64.474701 9.828078 -82.736313 66.980682 50.022152 161.847656 60.577419 109.872124 105.329071 36.084206 -5.653371 -38.543995 23.425793 -29.681810 4.763547 -14.430672 153.502075 329.993866 296.720673 201.390045 224.470703 13.149730 8.057692 414.858490 79.686890 118.404839 60.451454 -7.125000 0.000000 0.000000 458.406982 308.606049 450.434418 22.540201 75.818565 13.227451 90.263084 25.850170 129.622803 153.274307 194.231537 119.775238 25.144960 40.410282 563.538818 1781.388916 804.270386 1764.301880 7.125000 0.000000 0.000000 4300.100586 1894.129883 6622.400879
23.053858 6.842627 -416.870178 -94.781403 -75.717377 -25.520329 34.955631 19.809719 -33.718937 -94.776680 -106.589172 -195.529663 -24.928146 -5.291705 43.043804 15.777146 87.504837 43.041649 -0.703713 -19.072309 114.271568 -55.283596 -3.482434 9.689077 121.854286 141.919220 158.036453 -69.808418 -11.031313 237.890228 34.267097 55.666691 207.102402 54.205730 183.674469 279.826324 100.895027 137.197845 177.140335 46.153858 68.245102 63.971504 106.395210 137.245880 -62.570690 -180.772018 -133.957748 -38.686203 -28.831223 -102.556877 -138.116806 -64.648422 -75.136665 -179.099701 -107.440186 -179.119583 -36.656433 -235.076691 -249.473053 -342.889648 -247.051727 -152.405319 -64.608414 2.481909 -24.248711 -76.626648 -169.641556 -212.077652 -173.846298 -7.125000 0.000000 0.000000 -257.558136 -247.101791 -167.701035 -31.610151 54.079853 7.446080 45.674232 -17.830349 -205.783539 -191.864578 -2.896059 55.907726 5.010851 -2.683845 -65.092644 -279.327789 -62.015930 120.750221 7.125000 0.000000 0.000000 -895.557983 -1298.354614 -1224.756104
44.971935 12.489401 -161.061783 -35.002857 34.455017 83.086800 138.911072 82.419563 51.334633 164.902466 176.156738 317.611298 105.603027 139.234741 506.094086 109.175980 471.404480 466.279297 41.178848 121.713173 560.251465 75.964760 54.983170 91.026855 396.161804 476.491058 739.852966 56.341831 151.188965 910.779663 210.575134 550.228333 840.667480 125.357857 434.627380 866.791748 224.847534 233.544067 323.240967 104.043015 171.348480 141.760773 186.287735 270.251099 214.101791 63.289314 66.228394 268.518219 95.554794 178.620529 262.401062 142.604248 76.269829 95.814568 163.343658 8.670732 19.778872 47.645966 220.256821 269.044159 179.730026 73.918427 138.803864 15.102933 8.834186 511.692261 111.497604 251.882568 162.291275 -7.125000 0.000000 0.000000 173.301743 71.552521 213.213150 10.721523 91.046349 19.146502 126.749573 136.321503 90.783661 -167.276703 -4.059347 82.789124 8.260165 -2.230991 -79.769699 -617.097351 -207.992813 130.446884 7.125000 0.000000 0.000000 1277.018799 -155.916641 1289.038208
